# AST/ASF file generated using VICON BodyLanguage
# -----------------------------------------------
:version 1.10
:name VICON
:units
  mass 1.0
  length 0.45
  angle deg
:documentation
   .ast/.asf automatically generated from VICON data using
   VICON BodyBuilder and BodyLanguage model FoxedUp or BRILLIANT.MOD
:root
   order TX TY TZ RX RY RZ
   axis XYZ
   position 0 0 0  
   orientation 0 0 0 
:bonedata
  begin
     id 1 
     name lhipjoint
     direction 0.62366 -0.717238 0.310833 
     length 2.53602 
     axis 0 0 0  XYZ
  end
  begin
     id 2 
     name lfemur
     direction 0.34202 -0.939693 0  
     length 7.40817  
     axis 0 0 20  XYZ
    dof rx ry rz
    limits (-160.0 20.0)
           (-70.0 70.0)
           (-60.0 70.0)
  end
  begin
     id 3 
     name ltibia
     direction 0.34202 -0.939693 0   
     length 7.7045   
     axis 0 0 20   XYZ
    dof rx
    limits (-10.0 170.0)
  end
  begin
     id 4 
     name lfoot
     direction 0.0673888 -0.185149 0.980397   
     length 2.09456   
     axis -90 7.62852e-016 20   XYZ
    dof rx rz
    limits (-45.0 90.0)
           (-70.0 20.0)
  end
  begin
     id 5 
     name ltoes
     direction 1.53575e-011 -4.21994e-011 1   
     length 1.05543   
     axis -90 7.62852e-016 20   XYZ
    dof rx
    limits (-90.0 20.0)
  end
  begin
     id 6 
     name rhipjoint
     direction -0.489018 -0.800347 0.346851   
     length 2.27268  
     axis 0 0 0  XYZ 
  end
  begin
     id 7 
     name rfemur
     direction -0.34202 -0.939693 0   
     length 7.55487   
     axis 0 0 -20   XYZ
    dof rx ry rz
    limits (-160.0 20.0)
           (-70.0 70.0)
           (-70.0 60.0)
  end
  begin
     id 8 
     name rtibia
     direction -0.34202 -0.939693 0   
     length 7.78969   
     axis 0 0 -20   XYZ
    dof rx
    limits (-10.0 170.0)
 end
 begin
     id 9 
     name rfoot
     direction -0.0859318 -0.236096 0.967923   
     length 2.19143  
     axis -90 -7.62852e-016 -20   XYZ
    dof rx rz
    limits (-45.0 90.0)
           (-20.0 70.0)
  end
  begin
     id 10 
     name rtoes
     direction -1.53538e-011 -4.21989e-011 1   
     length 1.09845   
     axis -90 -7.62852e-016 -20   XYZ
    dof rx
    limits (-90.0 20.0)
  end
  begin
     id 11 
     name lowerback
     direction -0.00762546 0.998978 -0.0445553   
     length 1.98161   
     axis 0 0 0   XYZ
    dof rx ry rz
    limits (-20.0 45.0)
           (-30.0 30.0)
           (-30.0 30.0)
  end
  begin
     id 12 
     name upperback
     direction 0.0422361 0.998867 -0.0219156   
     length 1.97558   
     axis 0 0 0   XYZ
    dof rx ry rz
    limits (-20.0 45.0)
           (-30.0 30.0)
           (-30.0 30.0)
  end
  begin
     id 13 
     name thorax
     direction 0.0442465 0.999021 7.47603e-005   
     length 1.97799   
     axis 0 0 0   XYZ
    dof rx ry rz
    limits (-20.0 45.0)
           (-30.0 30.0)
           (-30.0 30.0)
  end
  begin
     id 14 
     name lowerneck
     direction 0.00312169 0.984641 0.174564   
     length 1.78995   
     axis 0 0 0   XYZ
    dof rx ry rz
    limits (-20.0 45.0)
           (-30.0 30.0)
           (-30.0 30.0)
  end
  begin
     id 15 
     name upperneck
     direction -0.0383028 0.985255 -0.166749   
     length 1.83053   
     axis 0 0 0   XYZ
    dof rx ry rz
    limits (-20.0 45.0)
           (-30.0 30.0)
           (-30.0 30.0)
  end
  begin
     id 16
     name head
     direction -0.0129546 0.997059 -0.0755386  
     length 1.84088  
     axis 0 0 0   XYZ
    dof rx ry rz
    limits (-20.0 45.0)
           (-30.0 30.0)
           (-30.0 30.0)
  end
  begin
     id 17 
     name lclavicle
     direction 0.912857 0.370519 -0.171488  
     length 3.51279  
     axis 0 0 0   XYZ
    dof ry rz
    limits (-20.0 10.0)
           (0.0 20.0)
  end
  begin
     id 18 
     name lhumerus
     direction 1 -4.48962e-011 3.64361e-027   
     length 4.95663   
     axis 180 -30 -90   XYZ
    dof rx ry rz
    limits (-60.0 90.0)
           (-90.0 90.0)
           (-90.0 90.0)
  end
  begin
     id 19
     name lradius
     direction 1 -4.48974e-011 5.97202e-027   
     length 3.38177   
     axis 180 -30 -90   XYZ
    dof rx
    limits (-10.0 170.0)
  end
  begin
     id 20
     name lwrist
     direction 1 -4.4896e-011 9.83288e-027   
     length 1.69088   
     axis -9.31221e-015 90 90   XYZ
    dof ry
    limits (-180.0 0.0)
 end
  begin
     id 21 
     name lhand
     direction 1 -4.4902e-011 1.96551e-026   
     length 0.662909   
     axis -1.25475e-014 90 90   XYZ
    dof rx rz
    limits (-90.0 90.0)
           (-45.0 45.0)
  end
  begin
     id 22 
     name lfingers
     direction 1 -4.48971e-011 3.93277e-026   
     length 0.534454   
     axis -2.50945e-014 90 90   XYZ
    dof rx
    limits (0.0 90.0)
  end
  begin
     id 23
     name lthumb
     direction 0.707107 -6.34933e-011 0.707107   
     length 0.767373   
     axis -90 45 -4.80359e-014   XYZ
    dof rx rz
    limits (-45.0 45.0)
           (-45.0 45.0)
  end
  begin
     id 24 
     name rclavicle
     direction -0.900919 0.395364 -0.178976   
     length 3.40627  
     axis 0 0 0   XYZ 
    dof ry rz
    limits (-10.0 20.0)
           (-20.0 0.0)
  end
  begin
     id 25 
     name rhumerus
     direction -1 -4.48969e-011 1.03875e-027  
     length 5.08365   
     axis 180 30 90   XYZ
    dof rx ry rz
    limits (-90.0 60.0)
           (-90.0 90.0)
           (-90.0 90.0)
  end
  begin
     id 26 
     name rradius
     direction -1 -4.48951e-011 5.02733e-027   
     length 3.35984   
     axis 180 30 90   XYZ
    dof rx
    limits (-10.0 170.0)
  end
  begin
     id 27 
     name rwrist
     direction -1 -4.49011e-011 9.82828e-027   
     length 1.67992   
     axis -9.31221e-015 -90 -90   XYZ
    dof ry
    limits (-180.0 0.0)
  end
  begin
     id 28
     name rhand
     direction -1 -4.48894e-011 1.96774e-026   
     length 0.820764   
     axis -1.25475e-014 -90 -90   XYZ
    dof rx rz
    limits (-90.0 90.0)
           (-45.0 45.0)
  end
  begin
     id 29
     name rfingers
     direction -1 -4.49095e-011 3.92833e-026   
     length 0.661721   
     axis -2.50945e-014 -90 -90   XYZ
    dof rx
    limits (0.0 90.0)
  end
  begin
     id 30
     name rthumb
     direction -0.707107 -6.34881e-011 0.707107   
     length 0.950103   
     axis -90 -45 4.80359e-014   XYZ
    dof rx rz
    limits (-45.0 45.0)
           (-45.0 45.0)
  end
:hierarchy
  begin
    root lhipjoint rhipjoint lowerback
    lhipjoint lfemur
    lfemur ltibia
    ltibia lfoot
    lfoot ltoes
    rhipjoint rfemur
    rfemur rtibia
    rtibia rfoot
    rfoot rtoes
    lowerback upperback
    upperback thorax
    thorax lowerneck lclavicle rclavicle
    lowerneck upperneck
    upperneck head
    lclavicle lhumerus
    lhumerus lradius
    lradius lwrist
    lwrist lhand lthumb
    lhand lfingers
    rclavicle rhumerus
    rhumerus rradius
    rradius rwrist
    rwrist rhand rthumb
    rhand rfingers
  end

#!OML:ASF I:\golf\golf\golf 2\Subject 1\2002-09-07\Subject1.ASF
:FULLY-SPECIFIED
:DEGREES
32
root -6.5172 17.7685 0.188452 -57.1778 86.2402 -74.6599
lowerback 2.74665 1.8389 -1.42404
upperback 3.40449 2.48861 4.05428
thorax 1.72469 1.21187 4.95451
lowerneck -16.1441 -1.3076 1.97359
upperneck 39.4409 0.786211 -3.96513
head 17.1146 0.59648 -1.83461
rclavicle 2.42517e-014 1.98785e-014
rhumerus -5.04561 -0.693232 -101.569
rradius 20.205
rwrist -29.1834
rhand -14.6813 -5.79509
rfingers 7.12502
rthumb 11.4721 -35.4612
lclavicle 2.42517e-014 1.98785e-014
lhumerus -11.1076 -45.0272 111.478
lradius 25.4704
lwrist 41.9058
lhand -14.4666 67.7116
lfingers 7.12502
lthumb -168.321 82.6339
rfemur -31.5962 -2.68708 12.6704
rtibia 29.4633
rfoot -8.31952 -11.3937
rtoes -7.53634
lfemur -30.8914 9.84176 -10.1922
ltibia 31.5486
lfoot -12.2018 0.609065
ltoes -23.7682
33
root -6.5166 17.768 0.187351 -57.597 86.2654 -75.0939
lowerback 2.73851 1.84409 -1.41303
upperback 3.38953 2.49563 4.05089
thorax 1.71367 1.2159 4.94444
lowerneck -16.1438 -1.32003 1.96229
upperneck 39.4503 0.773126 -3.96328
head 17.119 0.59057 -1.83419
rclavicle -1.94809e-014 -2.46493e-014
rhumerus -5.09055 -1.09257 -101.584
rradius 20.2206
rwrist -28.836
rhand -14.6263 -5.7452
rfingers 7.12502
rthumb 11.5251 -35.4083
lclavicle -1.94809e-014 -2.46493e-014
lhumerus -11.0468 -45.0752 111.42
lradius 25.4109
lwrist 41.9207
lhand -14.3663 67.6606
lfingers 7.12502
lthumb -168.224 82.6904
rfemur -31.596 -2.72456 12.6584
rtibia 29.4463
rfoot -8.41542 -11.4385
rtoes -6.51992
lfemur -30.9345 9.83181 -10.2111
ltibia 31.5708
lfoot -12.1878 0.536368
ltoes -23.1406
34
root -6.51639 17.7659 0.18737 -57.8706 86.2875 -75.3815
lowerback 2.74152 1.84889 -1.42245
upperback 3.37202 2.50208 4.05857
thorax 1.69258 1.21939 4.95706
lowerneck -16.1779 -1.33418 1.9037
upperneck 39.5158 0.764097 -3.92063
head 17.1634 0.586223 -1.80749
rclavicle -3.65764e-014 2.38542e-015
rhumerus -5.14459 -1.19486 -101.604
rradius 20.2614
rwrist -28.7822
rhand -14.8492 -5.68663
rfingers 7.12502
rthumb 11.3102 -35.3617
lclavicle -3.65764e-014 2.38542e-015
lhumerus -10.9623 -44.9522 111.386
lradius 25.2858
lwrist 41.8309
lhand -14.4303 67.7343
lfingers 7.12502
lthumb -168.286 82.6132
rfemur -31.598 -2.6991 12.626
rtibia 29.4342
rfoot -8.36524 -11.5143
rtoes -6.75411
lfemur -30.9756 9.83908 -10.231
ltibia 31.5957
lfoot -12.1848 0.445117
ltoes -22.8143
35
root -6.51555 17.7646 0.187158 -58.4457 86.2331 -75.9758
lowerback 2.73327 1.85446 -1.3922
upperback 3.35664 2.51086 4.10585
thorax 1.67973 1.22482 4.98906
lowerneck -16.1934 -1.3445 1.86794
upperneck 39.5522 0.768862 -3.92513
head 17.1881 0.583666 -1.80294
rclavicle 8.34896e-015 4.69132e-014
rhumerus -5.27669 -0.870175 -101.579
rradius 20.4865
rwrist -29.2212
rhand -14.9985 -5.71734
rfingers 7.12502
rthumb 11.1662 -35.4002
lclavicle 8.34896e-015 4.69132e-014
lhumerus -10.8183 -44.592 111.351
lradius 25.1084
lwrist 41.5854
lhand -14.5013 68.0049
lfingers 7.12502
lthumb -168.354 82.3387
rfemur -31.6093 -2.60582 12.6702
rtibia 29.4347
rfoot -8.28701 -11.6112
rtoes -7.80178
lfemur -31.0155 9.95515 -10.1958
ltibia 31.6124
lfoot -12.2174 0.396133
ltoes -23.3904
36
root -6.51451 17.7648 0.185922 -59.0983 86.2105 -76.615
lowerback 2.75256 1.86839 -1.35145
upperback 3.3528 2.53086 4.12723
thorax 1.66377 1.23616 4.98703
lowerneck -16.1965 -1.35765 1.89966
upperneck 39.5601 0.758137 -3.96918
head 17.1928 0.57894 -1.83069
rclavicle 3.93594e-014 4.77083e-014
rhumerus -5.39274 -0.691609 -101.526
rradius 20.7387
rwrist -29.8743
rhand -14.7888 -5.66283
rfingers 7.12502
rthumb 11.3685 -35.3347
lclavicle 3.93594e-014 4.77083e-014
lhumerus -10.7133 -44.4057 111.314
lradius 25.0148
lwrist 41.3
lhand -14.5346 68.604
lfingers 7.12502
lthumb -168.386 81.7378
rfemur -31.5829 -2.5211 12.6773
rtibia 29.4427
rfoot -8.31168 -11.662
rtoes -8.0075
lfemur -31.0199 10.0372 -10.1867
ltibia 31.6283
lfoot -12.2463 0.378394
ltoes -23.8455
37
root -6.51391 17.7649 0.18374 -59.9069 86.2594 -77.3864
lowerback 2.78875 1.87691 -1.28984
upperback 3.35824 2.5433 4.099
thorax 1.65152 1.24403 4.92101
lowerneck -16.2038 -1.37512 1.91658
upperneck 39.5739 0.726509 -3.96425
head 17.2006 0.570396 -1.83757
rclavicle 1.11319e-014 -4.13472e-014
rhumerus -5.44419 -0.741572 -101.465
rradius 20.9222
rwrist -30.6366
rhand -14.2558 -5.57909
rfingers 7.12502
rthumb 11.8824 -35.2219
lclavicle 1.11319e-014 -4.13472e-014
lhumerus -10.6548 -44.3903 111.272
lradius 24.96
lwrist 40.9544
lhand -14.4173 69.2019
lfingers 7.12502
lthumb -168.273 81.1463
rfemur -31.5278 -2.58354 12.6438
rtibia 29.4491
rfoot -8.33846 -11.6093
rtoes -7.53661
lfemur -31.0093 9.99625 -10.2145
ltibia 31.6483
lfoot -12.2745 0.339017
ltoes -23.7707
38
root -6.51293 17.7633 0.182144 -61.0558 86.3005 -78.5277
lowerback 2.79718 1.8661 -1.23937
upperback 3.34143 2.52982 4.08999
thorax 1.63306 1.23881 4.88241
lowerneck -16.1735 -1.39372 1.88696
upperneck 39.585 0.699436 -3.93038
head 17.1974 0.561214 -1.82151
rclavicle -4.77083e-014 -5.40694e-014
rhumerus -5.54026 -0.668957 -101.434
rradius 21.1144
rwrist -31.2994
rhand -14.0048 -5.64437
rfingers 7.12502
rthumb 12.1245 -35.2731
lclavicle -4.77083e-014 -5.40694e-014
lhumerus -10.5618 -44.1163 111.22
lradius 24.7818
lwrist 40.4569
lhand -14.202 69.4762
lfingers 7.12502
lthumb -168.066 80.884
rfemur -31.5049 -2.7298 12.6555
rtibia 29.4561
rfoot -8.29395 -11.5832
rtoes -7.41337
lfemur -31.029 9.92693 -10.2214
ltibia 31.6596
lfoot -12.2919 0.313925
ltoes -23.5587
39
root -6.51136 17.7619 0.181416 -61.9348 86.331 -79.4436
lowerback 2.73687 1.86686 -1.20822
upperback 3.32058 2.53045 4.07455
thorax 1.64709 1.23955 4.8503
lowerneck -16.1294 -1.41715 1.90335
upperneck 39.5777 0.652767 -3.91278
head 17.1792 0.548317 -1.82426
rclavicle -1.78906e-014 -6.36111e-015
rhumerus -5.60964 -0.722007 -101.465
rradius 21.2472
rwrist -31.5699
rhand -14.0762 -5.72344
rfingers 7.12502
rthumb 12.0556 -35.3562
lclavicle -1.78906e-014 -6.36111e-015
lhumerus -10.4053 -43.6696 111.126
lradius 24.4574
lwrist 39.8235
lhand -13.9801 69.5016
lfingers 7.12502
lthumb -167.852 80.8711
rfemur -31.5322 -2.82371 12.6648
rtibia 29.4703
rfoot -8.19338 -11.6318
rtoes -8.05364
lfemur -31.0807 9.88473 -10.2377
ltibia 31.6563
lfoot -12.2548 0.27663
ltoes -23.2021
40
root -6.5096 17.7621 0.180599 -61.9537 86.3849 -79.4736
lowerback 2.68574 1.88387 -1.22939
upperback 3.32492 2.5517 4.04812
thorax 1.67849 1.24906 4.83637
lowerneck -16.0857 -1.43358 1.91042
upperneck 39.5321 0.613825 -3.89454
head 17.1404 0.535598 -1.82289
rclavicle 1.07344e-014 3.81667e-014
rhumerus -5.64177 -0.854954 -101.487
rradius 21.3265
rwrist -31.642
rhand -14.0684 -5.78358
rfingers 7.12502
rthumb 12.0632 -35.4159
lclavicle 1.07344e-014 3.81667e-014
lhumerus -10.2688 -43.4827 111.029
lradius 24.2112
lwrist 39.6137
lhand -14.0331 69.4998
lfingers 7.12502
lthumb -167.903 80.8699
rfemur -31.5401 -2.86965 12.6142
rtibia 29.4879
rfoot -8.16649 -11.621
rtoes -8.36838
lfemur -31.0872 9.88412 -10.3082
ltibia 31.6492
lfoot -12.2567 0.233047
ltoes -23.3852
41
root -6.50776 17.7633 0.178592 -61.877 86.4605 -79.3539
lowerback 2.70429 1.89104 -1.26028
upperback 3.34027 2.5604 4.01741
thorax 1.68319 1.25261 4.82133
lowerneck -16.0627 -1.43915 1.9048
upperneck 39.5124 0.599842 -3.87839
head 17.1229 0.531317 -1.81635
rclavicle -2.62396e-014 7.15625e-015
rhumerus -5.66688 -1.02714 -101.508
rradius 21.3393
rwrist -31.5591
rhand -14.0692 -5.86457
rfingers 7.12502
rthumb 12.0624 -35.4969
lclavicle -2.62396e-014 7.15625e-015
lhumerus -10.151 -43.4747 110.925
lradius 24.1313
lwrist 39.7752
lhand -14.3074 69.7945
lfingers 7.12502
lthumb -168.167 80.5598
rfemur -31.4878 -2.91516 12.5289
rtibia 29.5024
rfoot -8.24518 -11.5916
rtoes -7.93213
lfemur -31.0309 9.86799 -10.4011
ltibia 31.6399
lfoot -12.2995 0.232262
ltoes -23.6577
42
root -6.50658 17.7627 0.176068 -62.3033 86.5104 -79.7541
lowerback 2.72485 1.90771 -1.23447
upperback 3.3364 2.58273 3.97974
thorax 1.66821 1.26467 4.76596
lowerneck -16.0456 -1.46304 1.96485
upperneck 39.5125 0.555261 -3.90495
head 17.1159 0.519615 -1.84707
rclavicle -3.26007e-014 -3.18055e-015
rhumerus -5.70267 -1.17153 -101.521
rradius 21.3218
rwrist -31.5153
rhand -14.1563 -5.88915
rfingers 7.12502
rthumb 11.9784 -35.5264
lclavicle -3.26007e-014 -3.18055e-015
lhumerus -10.022 -43.4006 110.827
lradius 24.0221
lwrist 39.7827
lhand -14.5116 70.2234
lfingers 7.12502
lthumb -168.364 80.1196
rfemur -31.4512 -2.95469 12.4773
rtibia 29.515
rfoot -8.27312 -11.6036
rtoes -7.89497
lfemur -31.0052 9.83126 -10.4513
ltibia 31.6321
lfoot -12.3198 0.247045
ltoes -23.6614
43
root -6.50636 17.7607 0.174116 -63.4204 86.5151 -80.8746
lowerback 2.72251 1.91791 -1.14438
upperback 3.3337 2.59742 3.94901
thorax 1.67036 1.27401 4.68256
lowerneck -16.0647 -1.48478 2.01536
upperneck 39.4999 0.500065 -3.90258
head 17.1107 0.50458 -1.86527
rclavicle 2.26615e-014 4.85035e-014
rhumerus -5.7287 -1.17043 -101.535
rradius 21.328
rwrist -31.6913
rhand -14.1699 -5.79659
rfingers 7.12502
rthumb 11.9653 -35.4346
lclavicle 2.26615e-014 4.85035e-014
lhumerus -9.83476 -43.2603 110.678
lradius 23.8638
lwrist 39.624
lhand -14.5501 70.7149
lfingers 7.12502
lthumb -168.401 79.6261
rfemur -31.4362 -2.91521 12.4641
rtibia 29.5186
rfoot -8.25818 -11.7018
rtoes -8.1624
lfemur -31.0265 9.79118 -10.4384
ltibia 31.637
lfoot -12.3217 0.242296
ltoes -23.8203
44
root -6.50563 17.7598 0.172632 -64.572 86.5155 -82.0322
lowerback 2.70524 1.92907 -1.05572
upperback 3.35215 2.61325 3.92413
thorax 1.70239 1.28335 4.60732
lowerneck -16.1379 -1.49719 2.02897
upperneck 39.5044 0.453016 -3.85651
head 17.1293 0.492732 -1.85669
rclavicle -1.47101e-014 -1.90833e-014
rhumerus -5.69283 -1.22552 -101.533
rradius 21.2974
rwrist -31.8021
rhand -14.0281 -5.76317
rfingers 7.12502
rthumb 12.102 -35.3932
lclavicle -1.47101e-014 -1.90833e-014
lhumerus -9.59906 -43.1408 110.502
lradius 23.7751
lwrist 39.3983
lhand -14.4489 71.5455
lfingers 7.12502
lthumb -168.304 78.801
rfemur -31.4154 -2.89137 12.4619
rtibia 29.5081
rfoot -8.28828 -11.774
rtoes -8.08586
lfemur -31.0574 9.76398 -10.4249
ltibia 31.6596
lfoot -12.3321 0.205146
ltoes -23.7368
45
root -6.50438 17.7597 0.172439 -64.8613 86.5222 -82.3157
lowerback 2.70479 1.97067 -1.07287
upperback 3.35643 2.66874 3.93427
thorax 1.70106 1.31083 4.62669
lowerneck -16.164 -1.52984 2.02687
upperneck 39.5065 0.405116 -3.85872
head 17.1347 0.473121 -1.86636
rclavicle 4.96962e-014 8.90555e-014
rhumerus -5.66902 -1.50034 -101.465
rradius 21.15
rwrist -31.2674
rhand -13.8086 -5.81902
rfingers 7.12502
rthumb 12.3136 -35.4364
lclavicle 4.96962e-014 8.90555e-014
lhumerus -9.42656 -43.0091 110.437
lradius 23.6399
lwrist 39.1938
lhand -14.4383 72.2234
lfingers 7.12502
lthumb -168.294 78.1237
rfemur -31.3896 -2.90001 12.4539
rtibia 29.4889
rfoot -8.35311 -11.765
rtoes -7.70179
lfemur -31.0776 9.7979 -10.4402
ltibia 31.6951
lfoot -12.3777 0.158901
ltoes -23.7411
46
root -6.50391 17.7592 0.171522 -65.3491 86.5146 -82.7948
lowerback 2.73011 1.99037 -1.12593
upperback 3.3364 2.69566 3.9959
thorax 1.65885 1.32402 4.71887
lowerneck -16.1493 -1.55642 1.98507
upperneck 39.5123 0.397937 -3.89379
head 17.134 0.460609 -1.87563
rclavicle -1.82882e-014 -3.18055e-014
rhumerus -5.71339 -1.9499 -101.394
rradius 20.9252
rwrist -30.1896
rhand -13.6224 -5.7328
rfingers 7.12502
rthumb 12.4932 -35.3394
lclavicle -1.82882e-014 -3.18055e-014
lhumerus -9.22009 -42.4768 110.41
lradius 23.3247
lwrist 38.7049
lhand -14.2207 72.2708
lfingers 7.12502
lthumb -168.084 78.0883
rfemur -31.3585 -2.89658 12.4562
rtibia 29.4679
rfoot -8.43516 -11.7972
rtoes -6.98993
lfemur -31.0981 9.79868 -10.4299
ltibia 31.7305
lfoot -12.3573 0.139239
ltoes -23.9783
